<?xml version="1.0" standalone="no"?>
<!DOCTYPE svg PUBLIC "-//W3C//DTD SVG 20010904//EN"
 "http://www.w3.org/TR/2001/REC-SVG-20010904/DTD/svg10.dtd">
<svg version="1.0" xmlns="http://www.w3.org/2000/svg"
 width="500.000000pt" height="500.000000pt" viewBox="0 0 500.000000 500.000000"
 preserveAspectRatio="xMidYMid meet">

<g transform="translate(0.000000,500.000000) scale(0.100000,-0.100000)"
fill="#000000" stroke="none">
<path d="M2224 3265 l-269 -234 -3 190 -2 189 -99 0 c-81 0 -100 -3 -105 -16
-3 -9 -6 -134 -6 -278 l0 -262 -50 -49 -50 -49 0 -146 c0 -81 3 -150 6 -153 4
-4 29 12 55 34 l49 41 2 -469 3 -468 747 -3 748 -2 2 465 3 466 35 -30 c66
-57 70 -51 70 118 l0 149 -422 364 c-233 200 -428 367 -434 370 -6 4 -132 -98
-280 -227z m699 -170 l407 -350 0 -117 c0 -65 -3 -118 -6 -118 -3 0 -24 14
-45 31 -21 17 -43 28 -49 24 -6 -4 -10 -168 -10 -476 l0 -469 -335 0 -335 0
40 52 c45 56 68 97 100 179 20 50 22 78 27 377 l6 322 81 0 81 0 63 69 c34 38
62 75 62 82 0 7 -13 -2 -29 -21 -27 -33 -32 -35 -105 -38 -54 -3 -76 -1 -76 8
0 6 25 36 55 67 l56 55 -36 122 c-19 67 -35 143 -35 169 l0 48 -77 -63 c-43
-35 -102 -78 -131 -97 -43 -27 -50 -35 -38 -45 11 -8 15 -41 18 -136 3 -123 3
-125 -19 -128 -13 -2 -35 -22 -53 -48 -16 -25 -30 -46 -30 -47 0 -1 25 0 56 1
l55 4 -3 -394 -3 -393 -27 -58 c-35 -75 -62 -87 -198 -87 -55 0 -100 3 -100 6
0 3 23 32 52 63 94 103 93 93 96 508 l3 363 28 15 c16 8 31 22 35 31 5 14 4
15 -8 4 -12 -10 -31 -7 -97 15 l-81 27 -44 -43 -44 -43 0 224 c0 194 2 226 17
242 9 10 12 18 7 18 -5 -1 -35 -26 -66 -58 l-57 -57 -4 -435 c-4 -470 -3 -466
-60 -527 -25 -28 -11 -30 23 -4 l24 19 19 -41 c21 -49 64 -107 78 -107 12 0
87 69 100 93 9 16 8 17 -9 8 -17 -9 -25 -6 -46 20 -14 17 -26 36 -26 42 -4
142 3 544 9 550 10 10 121 -22 121 -34 0 -4 -4 -11 -10 -14 -6 -4 -10 -144
-10 -386 0 -410 -1 -421 -54 -474 l-25 -25 -236 0 -235 0 0 473 c0 276 -4 478
-10 487 -8 12 -13 11 -37 -10 -15 -14 -39 -34 -52 -45 l-24 -20 7 125 7 125
49 50 50 51 0 262 0 262 70 0 70 0 2 -197 c2 -120 7 -198 13 -199 6 -2 133
104 284 236 166 144 279 236 286 232 7 -4 195 -164 418 -357z m-164 -142 c58
-224 63 -269 32 -297 -11 -10 -31 -16 -48 -14 l-28 3 0 145 c0 145 7 200 25
200 5 0 14 -17 19 -37z"/>
</g>
</svg>
