<?xml version="1.0" standalone="no"?>
<!DOCTYPE svg PUBLIC "-//W3C//DTD SVG 20010904//EN"
 "http://www.w3.org/TR/2001/REC-SVG-20010904/DTD/svg10.dtd">
<svg version="1.0" xmlns="http://www.w3.org/2000/svg"
 width="221.000000pt" height="248.000000pt" viewBox="0 0 221.000000 248.000000"
 preserveAspectRatio="xMidYMid meet">

<g transform="translate(0.000000,248.000000) scale(0.100000,-0.100000)"
fill="#000000" stroke="none">
<path d="M1015 2373 c-44 -37 -86 -74 -95 -83 -9 -8 -94 -82 -190 -165 -95
-82 -203 -176 -239 -208 l-66 -58 -5 233 -5 233 -125 0 -125 0 -3 -340 -2
-340 -61 -61 -60 -61 -6 -192 c-7 -220 -8 -218 74 -146 28 25 54 45 57 45 3 0
6 -256 6 -569 0 -313 3 -576 6 -585 6 -14 97 -16 935 -16 l929 0 0 580 c0 319
3 580 6 580 3 0 28 -18 55 -41 77 -64 79 -60 79 155 l0 184 -132 114 c-72 62
-184 158 -248 213 -64 55 -193 166 -286 246 -93 80 -222 192 -287 248 -64 55
-121 101 -126 101 -4 0 -43 -30 -86 -67z m358 -209 c144 -125 339 -292 432
-373 94 -80 179 -154 190 -164 11 -10 48 -42 82 -70 l63 -52 0 -147 c0 -82 -3
-148 -7 -148 -5 0 -28 16 -52 35 -24 19 -50 35 -57 35 -12 0 -14 -99 -14 -590
l0 -590 -420 0 -420 0 48 62 c60 78 86 124 120 208 l26 65 6 410 5 410 112 5
c61 3 113 7 115 10 2 3 17 23 33 45 16 22 50 59 75 82 25 22 42 44 38 48 -4 4
-22 -9 -41 -29 l-34 -36 -97 0 c-53 0 -96 4 -96 8 0 5 29 39 65 77 36 37 65
74 65 82 0 16 -43 173 -66 242 -8 25 -15 71 -15 103 0 32 -3 58 -6 58 -2 0
-43 -32 -91 -71 -47 -39 -117 -92 -155 -117 -38 -24 -64 -48 -59 -51 25 -16
32 -57 32 -189 l0 -139 -27 -6 c-20 -4 -39 -22 -65 -61 -21 -31 -38 -57 -38
-59 0 -1 30 -2 67 -2 l68 0 2 -440 c1 -389 -1 -450 -17 -526 -22 -108 -56
-164 -107 -179 -22 -6 -92 -10 -165 -8 l-128 3 66 74 c36 40 77 99 92 130 l27
56 3 453 c3 416 4 453 20 459 22 8 72 54 72 66 0 6 -9 2 -20 -8 -19 -17 -23
-16 -119 16 l-99 33 -53 -47 -54 -47 -8 260 c-8 253 -8 262 12 295 25 43 12
46 -22 5 -14 -16 -46 -48 -71 -70 l-46 -39 -3 -543 -2 -543 -23 -46 c-12 -26
-34 -59 -47 -73 -30 -32 -19 -33 27 -3 l34 24 17 -47 c19 -52 70 -128 93 -137
10 -4 37 16 80 58 35 35 64 68 64 73 0 6 -5 5 -12 -2 -21 -21 -46 -13 -73 22
l-26 35 1 348 c0 191 5 352 10 357 10 10 150 -30 150 -43 0 -5 -7 -14 -15 -21
-14 -11 -15 -74 -14 -495 2 -530 4 -509 -61 -574 l-32 -31 -299 0 -299 0 0
600 c0 574 -1 600 -18 600 -10 0 -29 -12 -43 -26 -13 -14 -36 -35 -51 -46
l-28 -19 0 144 0 144 65 65 65 65 0 332 0 331 90 0 90 0 2 -242 c3 -207 5
-243 18 -245 8 -2 47 25 86 59 39 35 151 133 250 218 98 85 219 190 267 232
49 43 93 78 98 78 5 0 127 -102 272 -226z m72 -465 c14 -52 32 -129 40 -171
15 -72 15 -80 -1 -113 -15 -33 -19 -35 -66 -35 l-50 0 4 193 c2 136 7 199 17
216 19 34 29 18 56 -90z"/>
</g>
</svg>
